# Blender 4.4.0
# www.blender.org
mtllib Branco.mtl
o Cube.003
v 0.134538 1.519654 -0.628128
v 0.134538 -0.050394 -0.628128
v 0.134538 1.519654 -0.541441
v 0.134538 -0.050394 -0.541441
v -0.457304 1.519654 -0.628128
v -0.457304 -0.050394 -0.628128
v -0.457304 1.519654 -0.541441
v -0.457304 -0.050394 -0.541441
vn -0.0000 1.0000 -0.0000
vn -0.0000 -0.0000 1.0000
vn -1.0000 -0.0000 -0.0000
vn -0.0000 -1.0000 -0.0000
vn 1.0000 -0.0000 -0.0000
vn -0.0000 -0.0000 -1.0000
s 0
usemtl Material.005
f 5//1 3//1 1//1
f 3//2 8//2 4//2
f 7//3 6//3 8//3
f 2//4 8//4 6//4
f 1//5 4//5 2//5
f 5//6 2//6 6//6
f 5//1 7//1 3//1
f 3//2 7//2 8//2
f 7//3 5//3 6//3
f 2//4 4//4 8//4
f 1//5 3//5 4//5
f 5//6 1//6 2//6
o Cube.007
v 0.124598 1.436037 -0.698089
v 0.124598 0.048335 -0.698089
v 0.124598 1.436037 -0.614500
v 0.124598 0.048335 -0.614500
v -0.446096 1.436037 -0.698089
v -0.446096 0.048335 -0.698089
v -0.446096 1.436037 -0.614500
v -0.446096 0.048335 -0.614500
vn -0.0000 1.0000 -0.0000
vn -0.0000 -0.0000 1.0000
vn -1.0000 -0.0000 -0.0000
vn -0.0000 -1.0000 -0.0000
vn 1.0000 -0.0000 -0.0000
vn -0.0000 -0.0000 -1.0000
s 0
usemtl Material.025
f 13//7 11//7 9//7
f 11//8 16//8 12//8
f 15//9 14//9 16//9
f 10//10 16//10 14//10
f 9//11 12//11 10//11
f 13//12 10//12 14//12
f 13//7 15//7 11//7
f 11//8 15//8 16//8
f 15//9 13//9 14//9
f 10//10 12//10 16//10
f 9//11 11//11 12//11
f 13//12 9//12 10//12
o Cube.005
v 0.134538 1.519654 -0.479791
v 0.134538 -0.050394 -0.479791
v 0.134538 1.519654 -0.393104
v 0.134538 -0.050394 -0.393104
v -0.457304 1.519654 -0.479791
v -0.457304 -0.050394 -0.479791
v -0.457304 1.519654 -0.393104
v -0.457304 -0.050394 -0.393104
vn -0.0000 1.0000 -0.0000
vn -0.0000 -0.0000 1.0000
vn -1.0000 -0.0000 -0.0000
vn -0.0000 -1.0000 -0.0000
vn 1.0000 -0.0000 -0.0000
vn -0.0000 -0.0000 -1.0000
s 0
usemtl Material.027
f 21//13 19//13 17//13
f 19//14 24//14 20//14
f 23//15 22//15 24//15
f 18//16 24//16 22//16
f 17//17 20//17 18//17
f 21//18 18//18 22//18
f 21//13 23//13 19//13
f 19//14 23//14 24//14
f 23//15 21//15 22//15
f 18//16 20//16 24//16
f 17//17 19//17 20//17
f 21//18 17//18 18//18
o Cube.009
v 0.124598 1.436037 -0.549752
v 0.124598 0.048335 -0.549752
v 0.124598 1.436037 -0.466163
v 0.124598 0.048335 -0.466163
v -0.446096 1.436037 -0.549752
v -0.446096 0.048335 -0.549752
v -0.446096 1.436037 -0.466163
v -0.446096 0.048335 -0.466163
vn -0.0000 1.0000 -0.0000
vn -0.0000 -0.0000 1.0000
vn -1.0000 -0.0000 -0.0000
vn -0.0000 -1.0000 -0.0000
vn 1.0000 -0.0000 -0.0000
vn -0.0000 -0.0000 -1.0000
s 0
usemtl Material.028
f 29//19 27//19 25//19
f 27//20 32//20 28//20
f 31//21 30//21 32//21
f 26//22 32//22 30//22
f 25//23 28//23 26//23
f 29//24 26//24 30//24
f 29//19 31//19 27//19
f 27//20 31//20 32//20
f 31//21 29//21 30//21
f 26//22 28//22 32//22
f 25//23 27//23 28//23
f 29//24 25//24 26//24
o Cube.013
v 0.134538 1.519654 -0.335162
v 0.134538 -0.050394 -0.335162
v 0.134538 1.519654 -0.248475
v 0.134538 -0.050394 -0.248475
v -0.457304 1.519654 -0.335162
v -0.457304 -0.050394 -0.335162
v -0.457304 1.519654 -0.248475
v -0.457304 -0.050394 -0.248475
vn -0.0000 1.0000 -0.0000
vn -0.0000 -0.0000 1.0000
vn -1.0000 -0.0000 -0.0000
vn -0.0000 -1.0000 -0.0000
vn 1.0000 -0.0000 -0.0000
vn -0.0000 -0.0000 -1.0000
s 0
usemtl Material.032
f 37//25 35//25 33//25
f 35//26 40//26 36//26
f 39//27 38//27 40//27
f 34//28 40//28 38//28
f 33//29 36//29 34//29
f 37//30 34//30 38//30
f 37//25 39//25 35//25
f 35//26 39//26 40//26
f 39//27 37//27 38//27
f 34//28 36//28 40//28
f 33//29 35//29 36//29
f 37//30 33//30 34//30
o Cube.016
v 0.124598 1.436037 -0.405123
v 0.124598 0.048335 -0.405123
v 0.124598 1.436037 -0.321534
v 0.124598 0.048335 -0.321534
v -0.446096 1.436037 -0.405123
v -0.446096 0.048335 -0.405123
v -0.446096 1.436037 -0.321534
v -0.446096 0.048335 -0.321534
vn -0.0000 1.0000 -0.0000
vn -0.0000 -0.0000 1.0000
vn -1.0000 -0.0000 -0.0000
vn -0.0000 -1.0000 -0.0000
vn 1.0000 -0.0000 -0.0000
vn -0.0000 -0.0000 -1.0000
s 0
usemtl Material.035
f 45//31 43//31 41//31
f 43//32 48//32 44//32
f 47//33 46//33 48//33
f 42//34 48//34 46//34
f 41//35 44//35 42//35
f 45//36 42//36 46//36
f 45//31 47//31 43//31
f 43//32 47//32 48//32
f 47//33 45//33 46//33
f 42//34 44//34 48//34
f 41//35 43//35 44//35
f 45//36 41//36 42//36
o Cube.018
v 0.130830 1.519654 0.109848
v 0.130830 -0.050394 0.109848
v 0.130830 1.519654 0.196535
v 0.130830 -0.050394 0.196535
v -0.461012 1.519654 0.109848
v -0.461012 -0.050394 0.109848
v -0.461012 1.519654 0.196535
v -0.461012 -0.050394 0.196535
vn -0.0000 1.0000 -0.0000
vn -0.0000 -0.0000 1.0000
vn -1.0000 -0.0000 -0.0000
vn -0.0000 -1.0000 -0.0000
vn 1.0000 -0.0000 -0.0000
vn -0.0000 -0.0000 -1.0000
s 0
usemtl Material.037
f 53//37 51//37 49//37
f 51//38 56//38 52//38
f 55//39 54//39 56//39
f 50//40 56//40 54//40
f 49//41 52//41 50//41
f 53//42 50//42 54//42
f 53//37 55//37 51//37
f 51//38 55//38 56//38
f 55//39 53//39 54//39
f 50//40 52//40 56//40
f 49//41 51//41 52//41
f 53//42 49//42 50//42
o Cube.019
v 0.120890 1.436037 0.039887
v 0.120890 0.048335 0.039887
v 0.120890 1.436037 0.123476
v 0.120890 0.048335 0.123476
v -0.449805 1.436037 0.039887
v -0.449805 0.048335 0.039887
v -0.449805 1.436037 0.123476
v -0.449805 0.048335 0.123476
vn -0.0000 1.0000 -0.0000
vn -0.0000 -0.0000 1.0000
vn -1.0000 -0.0000 -0.0000
vn -0.0000 -1.0000 -0.0000
vn 1.0000 -0.0000 -0.0000
vn -0.0000 -0.0000 -1.0000
s 0
usemtl Material.038
f 61//43 59//43 57//43
f 59//44 64//44 60//44
f 63//45 62//45 64//45
f 58//46 64//46 62//46
f 57//47 60//47 58//47
f 61//48 58//48 62//48
f 61//43 63//43 59//43
f 59//44 63//44 64//44
f 63//45 61//45 62//45
f 58//46 60//46 64//46
f 57//47 59//47 60//47
f 61//48 57//48 58//48
o Cube.024
v 0.130830 1.519654 -0.034780
v 0.130830 -0.050394 -0.034780
v 0.130830 1.519654 0.051907
v 0.130830 -0.050394 0.051907
v -0.461012 1.519654 -0.034780
v -0.461012 -0.050394 -0.034780
v -0.461012 1.519654 0.051907
v -0.461012 -0.050394 0.051907
vn -0.0000 1.0000 -0.0000
vn -0.0000 -0.0000 1.0000
vn -1.0000 -0.0000 -0.0000
vn -0.0000 -1.0000 -0.0000
vn 1.0000 -0.0000 -0.0000
vn -0.0000 -0.0000 -1.0000
s 0
usemtl Material.042
f 69//49 67//49 65//49
f 67//50 72//50 68//50
f 71//51 70//51 72//51
f 66//52 72//52 70//52
f 65//53 68//53 66//53
f 69//54 66//54 70//54
f 69//49 71//49 67//49
f 67//50 71//50 72//50
f 71//51 69//51 70//51
f 66//52 68//52 72//52
f 65//53 67//53 68//53
f 69//54 65//54 66//54
o Cube.027
v 0.120890 1.436037 -0.104741
v 0.120890 0.048335 -0.104741
v 0.120890 1.436037 -0.021152
v 0.120890 0.048335 -0.021152
v -0.449805 1.436037 -0.104741
v -0.449805 0.048335 -0.104741
v -0.449805 1.436037 -0.021152
v -0.449805 0.048335 -0.021152
vn -0.0000 1.0000 -0.0000
vn -0.0000 -0.0000 1.0000
vn -1.0000 -0.0000 -0.0000
vn -0.0000 -1.0000 -0.0000
vn 1.0000 -0.0000 -0.0000
vn -0.0000 -0.0000 -1.0000
s 0
usemtl Material.045
f 77//55 75//55 73//55
f 75//56 80//56 76//56
f 79//57 78//57 80//57
f 74//58 80//58 78//58
f 73//59 76//59 74//59
f 77//60 74//60 78//60
f 77//55 79//55 75//55
f 75//56 79//56 80//56
f 79//57 77//57 78//57
f 74//58 76//58 80//58
f 73//59 75//59 76//59
f 77//60 73//60 74//60
o Cube.028
v 0.130830 1.519654 -0.183117
v 0.130830 -0.050394 -0.183117
v 0.130830 1.519654 -0.096430
v 0.130830 -0.050394 -0.096430
v -0.461012 1.519654 -0.183117
v -0.461012 -0.050394 -0.183117
v -0.461012 1.519654 -0.096430
v -0.461012 -0.050394 -0.096430
vn -0.0000 1.0000 -0.0000
vn -0.0000 -0.0000 1.0000
vn -1.0000 -0.0000 -0.0000
vn -0.0000 -1.0000 -0.0000
vn 1.0000 -0.0000 -0.0000
vn -0.0000 -0.0000 -1.0000
s 0
usemtl Material.046
f 85//61 83//61 81//61
f 83//62 88//62 84//62
f 87//63 86//63 88//63
f 82//64 88//64 86//64
f 81//65 84//65 82//65
f 85//66 82//66 86//66
f 85//61 87//61 83//61
f 83//62 87//62 88//62
f 87//63 85//63 86//63
f 82//64 84//64 88//64
f 81//65 83//65 84//65
f 85//66 81//66 82//66
o Cube.029
v 0.120890 1.436037 -0.253078
v 0.120890 0.048335 -0.253078
v 0.120890 1.436037 -0.169489
v 0.120890 0.048335 -0.169489
v -0.449805 1.436037 -0.253078
v -0.449805 0.048335 -0.253078
v -0.449805 1.436037 -0.169489
v -0.449805 0.048335 -0.169489
vn -0.0000 1.0000 -0.0000
vn -0.0000 -0.0000 1.0000
vn -1.0000 -0.0000 -0.0000
vn -0.0000 -1.0000 -0.0000
vn 1.0000 -0.0000 -0.0000
vn -0.0000 -0.0000 -1.0000
s 0
usemtl Material.047
f 93//67 91//67 89//67
f 91//68 96//68 92//68
f 95//69 94//69 96//69
f 90//70 96//70 94//70
f 89//71 92//71 90//71
f 93//72 90//72 94//72
f 93//67 95//67 91//67
f 91//68 95//68 96//68
f 95//69 93//69 94//69
f 90//70 92//70 96//70
f 89//71 91//71 92//71
f 93//72 89//72 90//72
o Cube.037
v 0.120890 1.436037 0.188224
v 0.120890 0.048335 0.188224
v 0.120890 1.436037 0.271813
v 0.120890 0.048335 0.271813
v -0.449805 1.436037 0.188224
v -0.449805 0.048335 0.188224
v -0.449805 1.436037 0.271813
v -0.449805 0.048335 0.271813
vn -0.0000 1.0000 -0.0000
vn -0.0000 -0.0000 1.0000
vn -1.0000 -0.0000 -0.0000
vn -0.0000 -1.0000 -0.0000
vn 1.0000 -0.0000 -0.0000
vn -0.0000 -0.0000 -1.0000
s 0
usemtl Material.055
f 101//73 99//73 97//73
f 99//74 104//74 100//74
f 103//75 102//75 104//75
f 98//76 104//76 102//76
f 97//77 100//77 98//77
f 101//78 98//78 102//78
f 101//73 103//73 99//73
f 99//74 103//74 104//74
f 103//75 101//75 102//75
f 98//76 100//76 104//76
f 97//77 99//77 100//77
f 101//78 97//78 98//78
o Cube.038
v 0.130830 1.519654 0.258185
v 0.130830 -0.050394 0.258185
v 0.130830 1.519654 0.344872
v 0.130830 -0.050394 0.344872
v -0.461012 1.519654 0.258185
v -0.461012 -0.050394 0.258185
v -0.461012 1.519654 0.344872
v -0.461012 -0.050394 0.344872
vn -0.0000 1.0000 -0.0000
vn -0.0000 -0.0000 1.0000
vn -1.0000 -0.0000 -0.0000
vn -0.0000 -1.0000 -0.0000
vn 1.0000 -0.0000 -0.0000
vn -0.0000 -0.0000 -1.0000
s 0
usemtl Material.056
f 109//79 107//79 105//79
f 107//80 112//80 108//80
f 111//81 110//81 112//81
f 106//82 112//82 110//82
f 105//83 108//83 106//83
f 109//84 106//84 110//84
f 109//79 111//79 107//79
f 107//80 111//80 112//80
f 111//81 109//81 110//81
f 106//82 108//82 112//82
f 105//83 107//83 108//83
f 109//84 105//84 106//84
o Cube.039
v 0.120890 1.436037 0.325436
v 0.120890 0.048335 0.325436
v 0.120890 1.436037 0.409025
v 0.120890 0.048335 0.409025
v -0.449805 1.436037 0.325436
v -0.449805 0.048335 0.325436
v -0.449805 1.436037 0.409025
v -0.449805 0.048335 0.409025
vn -0.0000 1.0000 -0.0000
vn -0.0000 -0.0000 1.0000
vn -1.0000 -0.0000 -0.0000
vn -0.0000 -1.0000 -0.0000
vn 1.0000 -0.0000 -0.0000
vn -0.0000 -0.0000 -1.0000
s 0
usemtl Material.057
f 117//85 115//85 113//85
f 115//86 120//86 116//86
f 119//87 118//87 120//87
f 114//88 120//88 118//88
f 113//89 116//89 114//89
f 117//90 114//90 118//90
f 117//85 119//85 115//85
f 115//86 119//86 120//86
f 119//87 117//87 118//87
f 114//88 116//88 120//88
f 113//89 115//89 116//89
f 117//90 113//90 114//90
o Cube.006
v -0.280897 0.690417 0.862980
v -0.280897 0.498678 0.862980
v -0.280897 0.690417 1.400472
v -0.280897 0.498678 1.400473
v -0.372011 0.690417 0.862980
v -0.372011 0.498678 0.862980
v -0.372011 0.690417 1.400472
v -0.372011 0.498678 1.400473
vn -0.0000 1.0000 -0.0000
vn -0.0000 -0.0000 1.0000
vn -1.0000 -0.0000 -0.0000
vn -0.0000 -1.0000 -0.0000
vn 1.0000 -0.0000 -0.0000
vn -0.0000 -0.0000 -1.0000
s 0
usemtl Material.062
f 125//91 123//91 121//91
f 123//92 128//92 124//92
f 127//93 126//93 128//93
f 122//94 128//94 126//94
f 121//95 124//95 122//95
f 125//96 122//96 126//96
f 125//91 127//91 123//91
f 123//92 127//92 128//92
f 127//93 125//93 126//93
f 122//94 124//94 128//94
f 121//95 123//95 124//95
f 125//96 121//96 122//96
o Cube.008
v -0.280897 0.485356 0.862980
v -0.280897 0.293617 0.862980
v -0.280897 0.485356 1.400472
v -0.280897 0.293617 1.400473
v -0.372011 0.485356 0.862980
v -0.372011 0.293617 0.862980
v -0.372011 0.485356 1.400472
v -0.372011 0.293617 1.400473
vn -0.0000 1.0000 -0.0000
vn -0.0000 -0.0000 1.0000
vn -1.0000 -0.0000 -0.0000
vn -0.0000 -1.0000 -0.0000
vn 1.0000 -0.0000 -0.0000
vn -0.0000 -0.0000 -1.0000
s 0
usemtl Material.063
f 133//97 131//97 129//97
f 131//98 136//98 132//98
f 135//99 134//99 136//99
f 130//100 136//100 134//100
f 129//101 132//101 130//101
f 133//102 130//102 134//102
f 133//97 135//97 131//97
f 131//98 135//98 136//98
f 135//99 133//99 134//99
f 130//100 132//100 136//100
f 129//101 131//101 132//101
f 133//102 129//102 130//102
o Cube.010
v -0.280897 0.280295 0.862980
v -0.280897 0.088556 0.862980
v -0.280897 0.280295 1.400472
v -0.280897 0.088556 1.400473
v -0.372011 0.280295 0.862980
v -0.372011 0.088556 0.862980
v -0.372011 0.280295 1.400472
v -0.372011 0.088556 1.400473
vn -0.0000 1.0000 -0.0000
vn -0.0000 -0.0000 1.0000
vn -1.0000 -0.0000 -0.0000
vn -0.0000 -1.0000 -0.0000
vn 1.0000 -0.0000 -0.0000
vn -0.0000 -0.0000 -1.0000
s 0
usemtl Material.064
f 141//103 139//103 137//103
f 139//104 144//104 140//104
f 143//105 142//105 144//105
f 138//106 144//106 142//106
f 137//107 140//107 138//107
f 141//108 138//108 142//108
f 141//103 143//103 139//103
f 139//104 143//104 144//104
f 143//105 141//105 142//105
f 138//106 140//106 144//106
f 137//107 139//107 140//107
f 141//108 137//108 138//108
o Cube.011
v -0.280897 0.901886 0.869388
v -0.280897 0.710147 0.869388
v -0.280897 0.901886 1.406880
v -0.280897 0.710147 1.406881
v -0.372011 0.901886 0.869388
v -0.372011 0.710147 0.869388
v -0.372011 0.901886 1.406880
v -0.372011 0.710147 1.406881
vn -0.0000 1.0000 -0.0000
vn -0.0000 -0.0000 1.0000
vn -1.0000 -0.0000 -0.0000
vn -0.0000 -1.0000 -0.0000
vn 1.0000 -0.0000 -0.0000
vn -0.0000 -0.0000 -1.0000
s 0
usemtl Material.065
f 149//109 147//109 145//109
f 147//110 152//110 148//110
f 151//111 150//111 152//111
f 146//112 152//112 150//112
f 145//113 148//113 146//113
f 149//114 146//114 150//114
f 149//109 151//109 147//109
f 147//110 151//110 152//110
f 151//111 149//111 150//111
f 146//112 148//112 152//112
f 145//113 147//113 148//113
f 149//114 145//114 146//114
o Cube.012
v -0.280897 1.106947 0.869388
v -0.280897 0.915208 0.869388
v -0.280897 1.106947 1.406880
v -0.280897 0.915208 1.406881
v -0.372011 1.106947 0.869388
v -0.372011 0.915208 0.869388
v -0.372011 1.106947 1.406880
v -0.372011 0.915208 1.406881
vn -0.0000 1.0000 -0.0000
vn -0.0000 -0.0000 1.0000
vn -1.0000 -0.0000 -0.0000
vn -0.0000 -1.0000 -0.0000
vn 1.0000 -0.0000 -0.0000
vn -0.0000 -0.0000 -1.0000
s 0
usemtl Material.066
f 157//115 155//115 153//115
f 155//116 160//116 156//116
f 159//117 158//117 160//117
f 154//118 160//118 158//118
f 153//119 156//119 154//119
f 157//120 154//120 158//120
f 157//115 159//115 155//115
f 155//116 159//116 160//116
f 159//117 157//117 158//117
f 154//118 156//118 160//118
f 153//119 155//119 156//119
f 157//120 153//120 154//120
o Cube.014
v -0.280897 1.312008 0.869388
v -0.280897 1.120269 0.869388
v -0.280897 1.312008 1.406880
v -0.280897 1.120269 1.406881
v -0.372011 1.312008 0.869388
v -0.372011 1.120269 0.869388
v -0.372011 1.312008 1.406880
v -0.372011 1.120269 1.406881
vn -0.0000 1.0000 -0.0000
vn -0.0000 -0.0000 1.0000
vn -1.0000 -0.0000 -0.0000
vn -0.0000 -1.0000 -0.0000
vn 1.0000 -0.0000 -0.0000
vn -0.0000 -0.0000 -1.0000
s 0
usemtl Material.067
f 165//121 163//121 161//121
f 163//122 168//122 164//122
f 167//123 166//123 168//123
f 162//124 168//124 166//124
f 161//125 164//125 162//125
f 165//126 162//126 166//126
f 165//121 167//121 163//121
f 163//122 167//122 168//122
f 167//123 165//123 166//123
f 162//124 164//124 168//124
f 161//125 163//125 164//125
f 165//126 161//126 162//126
o Cube.015
v -0.280897 1.523477 0.869388
v -0.280897 1.331738 0.869388
v -0.280897 1.523477 1.406880
v -0.280897 1.331738 1.406881
v -0.372011 1.523477 0.869388
v -0.372011 1.331738 0.869388
v -0.372011 1.523477 1.406880
v -0.372011 1.331738 1.406881
vn -0.0000 1.0000 -0.0000
vn -0.0000 -0.0000 1.0000
vn -1.0000 -0.0000 -0.0000
vn -0.0000 -1.0000 -0.0000
vn 1.0000 -0.0000 -0.0000
vn -0.0000 -0.0000 -1.0000
s 0
usemtl Material.068
f 173//127 171//127 169//127
f 171//128 176//128 172//128
f 175//129 174//129 176//129
f 170//130 176//130 174//130
f 169//131 172//131 170//131
f 173//132 170//132 174//132
f 173//127 175//127 171//127
f 171//128 175//128 176//128
f 175//129 173//129 174//129
f 170//130 172//130 176//130
f 169//131 171//131 172//131
f 173//132 169//132 170//132
