# Blender 4.4.0
# www.blender.org
mtllib Escuro.mtl
o Cube.021
v 0.057507 1.487385 1.050468
v 0.024132 1.361809 1.050468
v 0.024132 1.201605 1.050468
v 0.024132 1.244302 1.050468
v 0.024132 1.084099 1.050468
v 0.024132 1.361809 1.122730
v 0.024132 1.046741 1.050468
v 0.024132 1.244302 1.122730
v 0.024132 1.201605 1.122730
v -0.231317 1.361809 1.050468
v 0.024132 0.929235 1.050468
v -0.231317 1.244302 1.050468
v 0.024132 1.084099 1.122730
v -0.231317 1.361809 1.122730
v 0.024132 0.891877 1.050468
v -0.231317 1.244302 1.122730
v 0.024132 0.731673 1.050468
v -0.231317 1.201605 1.050468
v 0.024132 1.046741 1.122730
v -0.231317 1.084099 1.050468
v 0.024132 0.774371 1.050468
v -0.231317 1.201605 1.122730
v 0.024132 0.929235 1.122730
v -0.231317 1.084099 1.122730
v 0.024132 0.614167 1.050468
v -0.231317 1.046741 1.050468
v 0.024132 0.891877 1.122730
v -0.231317 0.929235 1.050468
v -0.231317 1.046741 1.122730
v 0.024132 0.575920 1.050468
v 0.024132 0.774371 1.122730
v -0.231317 0.929235 1.122730
v -0.231317 0.891877 1.050468
v 0.024132 0.415716 1.050468
v 0.024132 0.731673 1.122730
v -0.231317 0.774371 1.050468
v 0.024132 0.458413 1.050468
v -0.231317 0.891877 1.122730
v -0.231317 0.774371 1.122730
v 0.024132 0.614167 1.122730
v 0.024132 0.575920 1.122730
v -0.231317 0.731673 1.050468
v -0.231317 0.614167 1.050468
v 0.021706 0.259962 1.050468
v 0.024132 0.458413 1.122730
v -0.231317 0.731673 1.122730
v 0.024132 0.298210 1.050468
v -0.231317 0.614167 1.122730
v 0.024132 0.415716 1.122730
v -0.231317 0.575920 1.050468
v -0.231317 0.458413 1.050468
v 0.057507 0.094040 1.050468
v 0.024132 0.298210 1.122730
v -0.231317 0.575920 1.122730
v 0.021706 0.142456 1.050468
v -0.231317 0.458413 1.122730
v 0.057507 1.487385 1.122730
v -0.231317 0.415716 1.050468
v 0.021706 0.259962 1.122730
v -0.231317 0.298210 1.050468
v 0.057507 0.094040 1.122730
v -0.231317 0.415716 1.122730
v 0.021706 0.142456 1.122730
v -0.231317 0.298210 1.122730
v -0.272975 1.487385 1.050468
v -0.233743 0.259962 1.050468
v -0.272975 0.094040 1.050468
v -0.233743 0.142456 1.050468
v -0.272975 1.487385 1.122730
v -0.233743 0.259962 1.122730
v -0.233743 0.142456 1.122730
v -0.272975 0.094040 1.122730
v 0.018153 0.259962 1.050468
v -0.233743 0.259447 1.122730
v 0.021706 0.244981 1.050468
v -0.233621 0.259962 1.122730
v -0.018790 0.415716 1.050468
v 0.009081 0.298210 1.050468
v -0.196678 0.415716 1.122730
v -0.224549 0.298210 1.122730
v -0.056788 0.575920 1.050468
v -0.028917 0.458413 1.050468
v -0.158680 0.575920 1.122730
v -0.186551 0.458413 1.122730
v -0.093731 0.731673 1.050468
v -0.065860 0.614167 1.050468
v -0.121737 0.731673 1.122730
v -0.149608 0.614167 1.122730
v -0.131729 0.891877 1.050468
v -0.103858 0.774371 1.050468
v -0.083739 0.891877 1.122730
v -0.111610 0.774371 1.122730
v -0.168460 1.046741 1.050468
v -0.140589 0.929235 1.050468
v -0.047007 1.046741 1.122730
v -0.074878 0.929235 1.122730
v -0.205192 1.201605 1.050468
v -0.177321 1.084099 1.050468
v -0.010276 1.201605 1.122730
v -0.038147 1.084099 1.122730
v -0.215319 1.244302 1.050468
v -0.231317 1.311750 1.050468
v -0.000149 1.244302 1.122730
v 0.024132 1.346672 1.122730
vn -0.0000 1.0000 -0.0000
vn -0.0000 -0.0000 1.0000
vn -1.0000 -0.0000 -0.0000
vn -0.0000 -1.0000 -0.0000
vn 1.0000 -0.0000 -0.0000
vn -0.0001 -0.0000 -1.0000
vn -0.0000 -0.0000 -1.0000
vn 0.0006 -0.0000 1.0000
vn -0.0001 -0.0000 1.0000
vn -0.0004 -0.0000 -1.0000
vn -0.0005 -0.0000 -1.0000
vn 0.0002 -0.0000 -1.0000
vn 0.0001 -0.0000 1.0000
s 1
usemtl Material.001
f 65//1 57//1 1//1
f 35//2 40//2 61//2
f 69//3 67//3 72//3
f 52//4 72//4 67//4
f 1//5 61//5 52//5
f 43//6 50//7 66//7
f 65//1 69//1 57//1
f 69//2 32//2 29//2
f 69//3 65//3 67//3
f 52//4 61//4 72//4
f 1//5 57//5 61//5
f 1//7 15//7 11//7
f 59//4 73//4 44//4
f 68//5 74//5 71//5
f 71//1 55//1 68//1
f 63//3 75//3 55//3
f 66//4 76//4 70//4
f 68//5 66//5 70//5
f 71//1 63//1 55//1
f 63//3 59//3 44//3
f 49//4 77//4 34//4
f 64//5 60//5 62//5
f 64//1 78//1 60//1
f 53//3 34//3 47//3
f 58//4 79//4 62//4
f 60//5 58//5 62//5
f 47//1 80//1 53//1
f 34//3 53//3 49//3
f 41//4 81//4 30//4
f 56//5 51//5 54//5
f 56//1 82//1 51//1
f 45//3 30//3 37//3
f 50//4 83//4 54//4
f 51//5 50//5 54//5
f 84//1 37//1 56//1
f 45//3 41//3 30//3
f 35//4 85//4 17//4
f 48//5 43//5 46//5
f 48//1 86//1 43//1
f 40//3 17//3 25//3
f 42//4 87//4 46//4
f 43//5 42//5 46//5
f 88//1 25//1 48//1
f 40//3 35//3 17//3
f 27//4 89//4 15//4
f 39//5 36//5 38//5
f 39//1 90//1 36//1
f 31//3 15//3 21//3
f 33//4 91//4 38//4
f 36//5 33//5 38//5
f 92//1 21//1 39//1
f 31//3 27//3 15//3
f 19//4 93//4 7//4
f 32//5 28//5 29//5
f 32//1 94//1 28//1
f 23//3 7//3 11//3
f 26//4 95//4 29//4
f 28//5 26//5 29//5
f 96//1 11//1 32//1
f 23//3 19//3 7//3
f 9//4 97//4 3//4
f 24//5 20//5 22//5
f 24//1 98//1 20//1
f 13//3 3//3 5//3
f 18//4 99//4 22//4
f 20//5 18//5 22//5
f 100//1 5//1 24//1
f 13//3 9//3 3//3
f 2//4 6//4 10//4
f 16//5 12//5 14//5
f 16//1 101//1 12//1
f 8//3 2//3 4//3
f 14//4 10//4 6//4
f 14//5 102//5 10//5
f 103//1 4//1 16//1
f 2//3 104//3 6//3
f 8//2 103//2 99//2
f 8//2 99//2 9//2
f 57//2 104//2 8//2
f 71//2 74//8 72//2
f 63//2 71//2 72//2
f 61//2 57//2 8//2
f 61//2 8//2 9//2
f 63//2 72//2 61//2
f 80//2 76//2 59//2
f 59//2 63//2 61//2
f 61//2 9//2 13//2
f 13//2 100//2 95//2
f 13//2 95//2 19//2
f 53//2 80//2 59//2
f 84//2 79//2 49//2
f 53//2 59//2 61//2
f 45//2 84//2 49//2
f 49//2 53//2 61//2
f 61//2 13//2 19//2
f 23//2 96//2 91//2
f 61//2 19//2 23//2
f 45//2 49//2 61//2
f 88//2 83//2 41//9
f 41//9 45//2 61//2
f 23//2 91//2 27//2
f 31//2 92//2 87//2
f 61//2 23//2 27//2
f 31//2 87//2 35//2
f 61//2 27//2 31//2
f 40//2 88//2 41//9
f 61//2 31//2 35//2
f 40//2 41//9 61//2
f 12//7 101//7 97//7
f 12//7 97//7 18//7
f 65//7 102//7 12//7
f 55//7 75//7 52//7
f 68//7 55//7 52//7
f 67//7 65//7 12//7
f 67//7 12//7 18//7
f 68//7 52//7 67//7
f 78//7 73//7 66//7
f 66//7 68//7 67//7
f 67//7 18//7 20//7
f 20//7 98//7 93//7
f 20//7 93//7 26//10
f 66//7 67//7 20//7
f 60//7 78//7 66//7
f 82//7 77//7 58//7
f 58//7 60//7 66//7
f 66//7 20//7 26//10
f 28//6 94//7 89//7
f 66//7 26//10 28//6
f 51//6 82//7 58//7
f 28//6 89//7 33//11
f 36//12 90//7 85//7
f 66//7 28//6 33//11
f 36//12 85//7 42//7
f 66//7 33//11 36//12
f 51//6 58//7 66//7
f 86//7 81//7 50//7
f 50//7 51//6 66//7
f 66//7 36//12 42//7
f 43//6 86//7 50//7
f 66//7 42//7 43//6
f 29//2 95//2 100//2
f 29//2 100//2 24//2
f 91//2 96//2 32//2
f 38//2 91//2 32//2
f 87//2 92//2 39//2
f 46//2 87//2 39//2
f 83//2 88//2 48//2
f 54//2 83//2 48//2
f 79//2 84//2 56//2
f 62//13 79//2 56//2
f 76//2 80//2 64//2
f 76//2 64//2 62//13
f 72//2 74//8 70//2
f 70//2 76//2 62//13
f 70//2 62//13 56//2
f 69//2 72//2 70//2
f 6//2 104//2 57//2
f 14//2 6//2 57//2
f 69//2 70//2 56//2
f 69//2 56//2 54//2
f 14//2 57//2 69//2
f 99//2 103//2 16//2
f 16//2 14//2 69//2
f 69//2 54//2 48//2
f 69//2 48//2 46//2
f 22//2 99//2 16//2
f 69//2 46//2 39//2
f 69//2 39//2 38//2
f 22//2 16//2 69//2
f 24//2 22//2 69//2
f 69//2 38//2 32//2
f 29//2 24//2 69//2
f 7//7 93//7 98//7
f 7//7 98//7 5//7
f 89//7 94//7 11//7
f 15//7 89//7 11//7
f 85//7 90//7 21//6
f 17//7 85//7 21//6
f 81//7 86//7 25//7
f 30//7 81//7 25//7
f 77//7 82//7 37//12
f 34//7 77//7 37//12
f 73//7 78//7 47//7
f 44//7 73//7 47//7
f 52//7 75//7 44//7
f 10//7 102//7 65//7
f 2//7 10//7 65//7
f 52//7 44//7 47//7
f 52//7 47//7 34//7
f 2//7 65//7 1//7
f 97//7 101//7 4//7
f 4//7 2//7 1//7
f 1//7 52//7 34//7
f 1//7 34//7 37//12
f 3//7 97//7 4//7
f 1//7 37//12 30//7
f 1//7 30//7 25//7
f 3//7 4//7 1//7
f 5//7 3//7 1//7
f 1//7 25//7 17//7
f 1//7 17//7 21//6
f 7//7 5//7 1//7
f 11//7 7//7 1//7
f 1//7 21//6 15//7
f 59//4 66//4 73//4
f 68//5 70//5 74//5
f 63//3 44//3 75//3
f 66//4 59//4 76//4
f 49//4 58//4 77//4
f 64//1 47//1 78//1
f 58//4 49//4 79//4
f 47//1 64//1 80//1
f 41//4 50//4 81//4
f 56//1 37//1 82//1
f 50//4 41//4 83//4
f 84//1 45//1 37//1
f 35//4 42//4 85//4
f 48//1 25//1 86//1
f 42//4 35//4 87//4
f 88//1 40//1 25//1
f 27//4 33//4 89//4
f 39//1 21//1 90//1
f 33//4 27//4 91//4
f 92//1 31//1 21//1
f 19//4 26//4 93//4
f 32//1 11//1 94//1
f 26//4 19//4 95//4
f 96//1 23//1 11//1
f 9//4 18//4 97//4
f 24//1 5//1 98//1
f 18//4 9//4 99//4
f 100//1 13//1 5//1
f 16//1 4//1 101//1
f 14//5 12//5 102//5
f 103//1 8//1 4//1
f 2//3 8//3 104//3
o Cube.030
v 0.083185 1.442528 -1.429488
v 0.032168 1.316951 -1.429487
v 0.032168 1.156748 -1.429487
v 0.032168 1.199445 -1.429487
v 0.032168 1.039241 -1.429487
v 0.032168 1.316951 -1.357226
v 0.032168 1.001884 -1.429487
v 0.032168 1.199445 -1.357226
v 0.032168 1.156748 -1.357226
v -0.358309 1.316951 -1.429487
v 0.032168 0.884378 -1.429487
v -0.358309 1.199445 -1.429487
v 0.032168 1.039241 -1.357226
v -0.358309 1.316951 -1.357226
v 0.032168 0.847020 -1.429487
v -0.358309 1.199445 -1.357226
v 0.032168 0.686816 -1.429487
v -0.358309 1.156748 -1.429487
v 0.032168 1.001884 -1.357226
v -0.358309 1.039241 -1.429487
v 0.032168 0.729514 -1.429487
v -0.358309 1.156748 -1.357226
v 0.032168 0.884378 -1.357226
v -0.358309 1.039241 -1.357226
v 0.032168 0.569310 -1.429487
v -0.358309 1.001884 -1.429487
v 0.032168 0.847020 -1.357226
v -0.358309 0.884378 -1.429487
v -0.358309 1.001884 -1.357226
v 0.032168 0.531063 -1.429487
v 0.032168 0.729514 -1.357226
v -0.358309 0.884378 -1.357226
v -0.358309 0.847020 -1.429487
v 0.032168 0.370859 -1.429487
v 0.032168 0.686816 -1.357226
v -0.358309 0.729514 -1.429487
v 0.032168 0.413556 -1.429487
v -0.358309 0.847020 -1.357226
v -0.358309 0.729514 -1.357226
v 0.032168 0.569310 -1.357226
v 0.032168 0.531063 -1.357226
v -0.358309 0.686816 -1.429487
v -0.358309 0.569310 -1.429487
v 0.028459 0.215105 -1.429487
v 0.032168 0.413556 -1.357226
v -0.358309 0.686816 -1.357226
v 0.032168 0.253353 -1.429487
v -0.358309 0.569310 -1.357226
v 0.032168 0.370859 -1.357226
v -0.358309 0.531063 -1.429487
v -0.358309 0.413556 -1.429487
v 0.083185 0.049183 -1.429487
v 0.032168 0.253353 -1.357226
v -0.358309 0.531063 -1.357226
v 0.028459 0.097599 -1.429487
v -0.358309 0.413556 -1.357226
v 0.083185 1.442528 -1.357226
v -0.358309 0.370859 -1.429487
v 0.028459 0.215105 -1.357226
v -0.358309 0.253353 -1.429487
v 0.083185 0.049183 -1.357226
v -0.358309 0.370859 -1.357226
v 0.028459 0.097599 -1.357226
v -0.358309 0.253353 -1.357226
v -0.421987 1.442528 -1.429488
v -0.362017 0.215105 -1.429487
v -0.421987 0.049183 -1.429487
v -0.362017 0.097599 -1.429487
v -0.421987 1.442528 -1.357226
v -0.362017 0.215105 -1.357226
v -0.362017 0.097599 -1.357226
v -0.421987 0.049183 -1.357226
v 0.023028 0.215105 -1.429487
v -0.362017 0.214589 -1.357226
v 0.028459 0.200124 -1.429487
v -0.361830 0.215105 -1.357226
v -0.033442 0.370859 -1.429487
v 0.009161 0.253353 -1.429487
v -0.305360 0.370859 -1.357226
v -0.347963 0.253353 -1.357226
v -0.091526 0.531063 -1.429487
v -0.048923 0.413556 -1.429487
v -0.247277 0.531063 -1.357226
v -0.289880 0.413556 -1.357226
v -0.147996 0.686816 -1.429487
v -0.105393 0.569310 -1.429487
v -0.190806 0.686816 -1.357226
v -0.233410 0.569310 -1.357226
v -0.206080 0.847020 -1.429487
v -0.163476 0.729514 -1.429487
v -0.132723 0.847020 -1.357226
v -0.175326 0.729514 -1.357226
v -0.262227 1.001884 -1.429487
v -0.219624 0.884378 -1.429487
v -0.076575 1.001884 -1.357226
v -0.119179 0.884378 -1.357226
v -0.318375 1.156748 -1.429487
v -0.275771 1.039241 -1.429487
v -0.020428 1.156748 -1.357226
v -0.063031 1.039241 -1.357226
v -0.333855 1.199445 -1.429487
v -0.358309 1.266893 -1.429487
v -0.004947 1.199445 -1.357226
v 0.032168 1.301815 -1.357226
vn -0.0000 1.0000 -0.0000
vn -0.0000 -0.0000 1.0000
vn -1.0000 -0.0000 -0.0000
vn -0.0000 -1.0000 -0.0000
vn 1.0000 -0.0000 -0.0000
vn 0.0001 -0.0000 -1.0000
vn -0.0003 -0.0000 -1.0000
vn -0.0000 -0.0000 -1.0000
vn -0.0001 -0.0000 1.0000
vn 0.0004 -0.0000 -1.0000
vn -0.0001 -0.0000 -1.0000
vn -0.0004 -0.0000 -1.0000
vn 0.0001 -0.0000 1.0000
s 1
usemtl Material.002
f 169//14 161//14 105//14
f 139//15 144//15 165//15
f 173//16 171//16 176//16
f 156//17 176//17 171//17
f 105//18 165//18 156//18
f 147//19 154//20 170//21
f 169//14 173//14 161//14
f 173//15 136//15 133//15
f 173//16 169//16 171//16
f 156//17 165//17 176//17
f 105//18 161//18 165//18
f 105//21 119//21 115//21
f 163//17 177//17 148//17
f 172//18 178//18 175//18
f 175//14 159//14 172//14
f 167//16 179//16 159//16
f 170//17 180//17 174//17
f 172//18 170//18 174//18
f 175//14 167//14 159//14
f 167//16 163//16 148//16
f 153//17 181//17 138//17
f 168//18 164//18 166//18
f 168//14 182//14 164//14
f 157//16 138//16 151//16
f 162//17 183//17 166//17
f 164//18 162//18 166//18
f 151//14 184//14 157//14
f 138//16 157//16 153//16
f 145//17 185//17 134//17
f 160//18 155//18 158//18
f 160//14 186//14 155//14
f 149//16 134//16 141//16
f 154//17 187//17 158//17
f 155//18 154//18 158//18
f 188//14 141//14 160//14
f 149//16 145//16 134//16
f 139//17 189//17 121//17
f 152//18 147//18 150//18
f 152//14 190//14 147//14
f 144//16 121//16 129//16
f 146//17 191//17 150//17
f 147//18 146//18 150//18
f 192//14 129//14 152//14
f 144//16 139//16 121//16
f 131//17 193//17 119//17
f 143//18 140//18 142//18
f 143//14 194//14 140//14
f 135//16 119//16 125//16
f 137//17 195//17 142//17
f 140//18 137//18 142//18
f 196//14 125//14 143//14
f 135//16 131//16 119//16
f 123//17 197//17 111//17
f 136//18 132//18 133//18
f 136//14 198//14 132//14
f 127//16 111//16 115//16
f 130//17 199//17 133//17
f 132//18 130//18 133//18
f 200//14 115//14 136//14
f 127//16 123//16 111//16
f 113//17 201//17 107//17
f 128//18 124//18 126//18
f 128//14 202//14 124//14
f 117//16 107//16 109//16
f 122//17 203//17 126//17
f 124//18 122//18 126//18
f 204//14 109//14 128//14
f 117//16 113//16 107//16
f 106//17 110//17 114//17
f 120//18 116//18 118//18
f 120//14 205//14 116//14
f 112//16 106//16 108//16
f 118//17 114//17 110//17
f 118//18 206//18 114//18
f 207//14 108//14 120//14
f 106//16 208//16 110//16
f 112//15 207//15 203//15
f 112//15 203//15 113//22
f 161//15 208//15 112//15
f 175//15 178//15 176//15
f 167//15 175//15 176//15
f 165//15 161//15 112//15
f 165//15 112//15 113//22
f 167//15 176//15 165//15
f 184//15 180//15 163//15
f 163//15 167//15 165//15
f 165//15 113//22 117//15
f 117//15 204//15 199//15
f 117//15 199//15 123//15
f 157//15 184//15 163//15
f 188//15 183//15 153//15
f 157//15 163//15 165//15
f 149//15 188//15 153//15
f 153//15 157//15 165//15
f 165//15 117//15 123//15
f 127//15 200//15 195//15
f 165//15 123//15 127//15
f 149//15 153//15 165//15
f 192//15 187//15 145//15
f 145//15 149//15 165//15
f 127//15 195//15 131//15
f 135//15 196//15 191//15
f 165//15 127//15 131//15
f 135//15 191//15 139//15
f 165//15 131//15 135//15
f 144//15 192//15 145//15
f 165//15 135//15 139//15
f 144//15 145//15 165//15
f 116//21 205//21 201//21
f 116//21 201//21 122//21
f 169//21 206//21 116//21
f 159//21 179//21 156//21
f 172//21 159//21 156//21
f 171//21 169//21 116//21
f 171//21 116//21 122//21
f 172//21 156//21 171//21
f 182//21 177//21 170//21
f 170//21 172//21 171//21
f 171//21 122//21 124//21
f 124//21 202//21 197//21
f 124//21 197//21 130//23
f 170//21 171//21 124//21
f 164//21 182//21 170//21
f 186//21 181//21 162//21
f 162//21 164//21 170//21
f 170//21 124//21 130//23
f 132//24 198//21 193//21
f 170//21 130//23 132//24
f 155//21 186//21 162//21
f 132//24 193//21 137//21
f 140//19 194//21 189//21
f 170//21 132//24 137//21
f 140//19 189//21 146//25
f 170//21 137//21 140//19
f 155//21 162//21 170//21
f 190//21 185//21 154//20
f 154//20 155//21 170//21
f 170//21 140//19 146//25
f 147//19 190//21 154//20
f 170//21 146//25 147//19
f 133//15 199//15 204//15
f 133//15 204//15 128//15
f 195//15 200//15 136//15
f 142//15 195//15 136//15
f 191//15 196//15 143//15
f 150//15 191//15 143//15
f 187//15 192//15 152//15
f 158//15 187//15 152//15
f 183//15 188//15 160//15
f 166//26 183//15 160//15
f 180//15 184//15 168//15
f 180//15 168//15 166//26
f 176//15 178//15 174//15
f 174//15 180//15 166//26
f 174//15 166//26 160//15
f 173//15 176//15 174//15
f 110//15 208//15 161//15
f 118//15 110//15 161//15
f 173//15 174//15 160//15
f 173//15 160//15 158//15
f 118//15 161//15 173//15
f 203//15 207//15 120//15
f 120//15 118//15 173//15
f 173//15 158//15 152//15
f 173//15 152//15 150//15
f 126//15 203//15 120//15
f 173//15 150//15 143//15
f 173//15 143//15 142//15
f 126//15 120//15 173//15
f 128//15 126//15 173//15
f 173//15 142//15 136//15
f 133//15 128//15 173//15
f 111//21 197//21 202//21
f 111//21 202//21 109//21
f 193//21 198//21 115//21
f 119//21 193//21 115//21
f 189//21 194//21 125//21
f 121//21 189//21 125//21
f 185//21 190//21 129//21
f 134//21 185//21 129//21
f 181//21 186//21 141//21
f 138//21 181//21 141//21
f 177//21 182//21 151//21
f 148//21 177//21 151//21
f 156//21 179//21 148//21
f 114//21 206//21 169//21
f 106//21 114//21 169//21
f 156//21 148//21 151//21
f 156//21 151//21 138//21
f 106//21 169//21 105//21
f 201//21 205//21 108//21
f 108//21 106//21 105//21
f 105//21 156//21 138//21
f 105//21 138//21 141//21
f 107//21 201//21 108//21
f 105//21 141//21 134//21
f 105//21 134//21 129//21
f 107//21 108//21 105//21
f 109//21 107//21 105//21
f 105//21 129//21 121//21
f 105//21 121//21 125//21
f 111//21 109//21 105//21
f 115//21 111//21 105//21
f 105//21 125//21 119//21
f 163//17 170//17 177//17
f 172//18 174//18 178//18
f 167//16 148//16 179//16
f 170//17 163//17 180//17
f 153//17 162//17 181//17
f 168//14 151//14 182//14
f 162//17 153//17 183//17
f 151//14 168//14 184//14
f 145//17 154//17 185//17
f 160//14 141//14 186//14
f 154//17 145//17 187//17
f 188//14 149//14 141//14
f 139//17 146//17 189//17
f 152//14 129//14 190//14
f 146//17 139//17 191//17
f 192//14 144//14 129//14
f 131//17 137//17 193//17
f 143//14 125//14 194//14
f 137//17 131//17 195//17
f 196//14 135//14 125//14
f 123//17 130//17 197//17
f 136//14 115//14 198//14
f 130//17 123//17 199//17
f 200//14 127//14 115//14
f 113//17 122//17 201//17
f 128//14 109//14 202//14
f 122//17 113//17 203//17
f 204//14 117//14 109//14
f 120//14 108//14 205//14
f 118//18 116//18 206//18
f 207//14 112//14 108//14
f 106//16 112//16 208//16
