# Blender 4.4.0
# www.blender.org
mtllib Vermelho.mtl
o Cube.001
v -0.357794 1.564227 0.862770
v -0.357794 -0.028406 0.862770
v -0.357794 1.564227 1.445890
v -0.357794 -0.028406 1.445891
v -0.448908 1.564227 0.862770
v -0.448908 -0.028406 0.862770
v -0.448908 1.564227 1.445890
v -0.448908 -0.028406 1.445891
vn -0.0000 1.0000 -0.0000
vn -0.0000 -0.0000 1.0000
vn -1.0000 -0.0000 -0.0000
vn -0.0000 -1.0000 -0.0000
vn 1.0000 -0.0000 -0.0000
vn -0.0000 -0.0000 -1.0000
s 1
usemtl Material.003
f 5//1 3//1 1//1
f 3//2 8//2 4//2
f 7//3 6//3 8//3
f 2//4 8//4 6//4
f 1//5 4//5 2//5
f 5//6 2//6 6//6
f 5//1 7//1 3//1
f 3//2 7//2 8//2
f 7//3 5//3 6//3
f 2//4 4//4 8//4
f 1//5 3//5 4//5
f 5//6 1//6 2//6
o Cube.002
v 0.221398 1.548518 -1.369056
v 0.221398 -0.064564 -1.369056
v 0.221398 1.548519 -0.681246
v 0.221398 -0.064564 -0.681246
v -0.556812 1.548518 -1.369056
v -0.556812 -0.064564 -1.369056
v -0.556812 1.548519 -0.681246
v -0.556812 -0.064564 -0.681246
vn -0.0000 1.0000 -0.0000
vn -0.0000 -0.0000 1.0000
vn -1.0000 -0.0000 -0.0000
vn -0.0000 -1.0000 -0.0000
vn 1.0000 -0.0000 -0.0000
vn -0.0000 -0.0000 -1.0000
s 1
usemtl Material.004
f 13//7 11//7 9//7
f 11//8 16//8 12//8
f 15//9 14//9 16//9
f 10//10 16//10 14//10
f 9//11 12//11 10//11
f 13//12 10//12 14//12
f 13//7 15//7 11//7
f 11//8 15//8 16//8
f 15//9 13//9 14//9
f 10//10 12//10 16//10
f 9//11 11//11 12//11
f 13//12 9//12 10//12
o Cube.004
v 0.215389 1.577250 0.403473
v 0.215389 -0.035832 0.403473
v 0.215389 1.577250 1.091283
v 0.215389 -0.035832 1.091284
v -0.562821 1.577250 0.403473
v -0.562821 -0.035832 0.403473
v -0.562821 1.577250 1.091283
v -0.562821 -0.035832 1.091284
vn -0.0000 1.0000 -0.0000
vn -0.0000 -0.0000 1.0000
vn -1.0000 -0.0000 -0.0000
vn -0.0000 -1.0000 -0.0000
vn 1.0000 -0.0000 -0.0000
vn -0.0000 -0.0000 -1.0000
s 1
usemtl Material.061
f 21//13 19//13 17//13
f 19//14 24//14 20//14
f 23//15 22//15 24//15
f 18//16 24//16 22//16
f 17//17 20//17 18//17
f 21//18 18//18 22//18
f 21//13 23//13 19//13
f 19//14 23//14 24//14
f 23//15 21//15 22//15
f 18//16 20//16 24//16
f 17//17 19//17 20//17
f 21//18 17//18 18//18
